<svg width="24" height="24" viewBox="0 0 24 24" fill="none" xmlns="http://www.w3.org/2000/svg">
<path d="M10.5 5.99996C10.5 5.79146 10.5 5.68647 10.512 5.59947C10.5504 5.32502 10.6772 5.07055 10.8731 4.8746C11.0691 4.67865 11.3236 4.55187 11.598 4.51347C11.6865 4.50147 11.79 4.50146 11.9985 4.50146C12.207 4.50146 12.3135 4.50147 12.399 4.51347C12.6734 4.55187 12.9279 4.67865 13.1239 4.8746C13.3198 5.07055 13.4466 5.32502 13.485 5.59947C13.497 5.68647 13.497 5.79146 13.497 5.99996C13.497 6.20846 13.497 6.31347 13.485 6.40047C13.4466 6.67491 13.3198 6.92937 13.1239 7.12533C12.9279 7.32128 12.6734 7.44806 12.399 7.48647C12.312 7.49847 12.207 7.49847 11.9985 7.49847C11.79 7.49847 11.685 7.49847 11.598 7.48647C11.3236 7.44806 11.0691 7.32128 10.8731 7.12533C10.6772 6.92937 10.5504 6.67491 10.512 6.40047C10.5 6.31347 10.5 6.20846 10.5 5.99996ZM10.5 12C10.5 11.7915 10.5 11.6865 10.512 11.5995C10.5504 11.325 10.6772 11.0706 10.8731 10.8746C11.0691 10.6786 11.3236 10.5519 11.598 10.5135C11.6865 10.5015 11.79 10.5015 11.9985 10.5015C12.207 10.5015 12.3135 10.5015 12.399 10.5135C12.6734 10.5519 12.9279 10.6786 13.1239 10.8746C13.3198 11.0706 13.4466 11.325 13.485 11.5995C13.497 11.6865 13.497 11.7915 13.497 12C13.497 12.2085 13.497 12.3135 13.485 12.4005C13.4466 12.6749 13.3198 12.9294 13.1239 13.1253C12.9279 13.3213 12.6734 13.4481 12.399 13.4865C12.312 13.4985 12.207 13.4985 11.9985 13.4985C11.79 13.4985 11.685 13.4985 11.598 13.4865C11.3236 13.4481 11.0691 13.3213 10.8731 13.1253C10.6772 12.9294 10.5504 12.6749 10.512 12.4005C10.5 12.3135 10.5 12.2085 10.5 12ZM10.5 18C10.5 17.7915 10.5 17.6865 10.512 17.5995C10.5504 17.325 10.6772 17.0706 10.8731 16.8746C11.0691 16.6786 11.3236 16.5519 11.598 16.5135C11.6865 16.5015 11.79 16.5015 11.9985 16.5015C12.207 16.5015 12.3135 16.5015 12.399 16.5135C12.6734 16.5519 12.9279 16.6786 13.1239 16.8746C13.3198 17.0706 13.4466 17.325 13.485 17.5995C13.497 17.6865 13.497 17.7915 13.497 18C13.497 18.2085 13.497 18.3135 13.485 18.402C13.4466 18.6764 13.3198 18.9309 13.1239 19.1268C12.9279 19.3228 12.6734 19.4496 12.399 19.488C12.312 19.5 12.207 19.5 12 19.5C11.793 19.5 11.6865 19.5 11.5995 19.488C11.3251 19.4496 11.0706 19.3228 10.8746 19.1268C10.6787 18.9309 10.5519 18.6764 10.5135 18.402C10.5 18.315 10.5 18.21 10.5 18Z" fill="black"/>
</svg>
