<svg width="42" height="42" viewBox="0 0 42 42" fill="none" xmlns="http://www.w3.org/2000/svg">
<path d="M20.7434 11.231C23.4234 11.231 25.6267 13.3369 25.7385 16.0053H25.7124C25.7155 16.0828 25.7006 16.1601 25.6688 16.231H25.8249C27.042 16.231 28.3163 17.0745 28.8273 19.1108L28.8829 19.351L29.6518 25.5457C30.2051 29.4967 28.0435 31.1582 25.0947 31.2286L24.897 31.231H16.607C13.6103 31.231 11.301 30.1389 11.8088 25.8145L11.8434 25.5457L12.6211 19.351C13.0046 17.1581 14.2921 16.2932 15.5326 16.2342L15.6702 16.231H15.7484C15.7352 16.1563 15.7352 16.0799 15.7484 16.0053C15.8602 13.3369 18.0635 11.231 20.7434 11.231ZM17.8355 19.5602C17.3474 19.5602 16.9517 19.9675 16.9517 20.4699C16.9517 20.9723 17.3474 21.3795 17.8355 21.3795C18.3236 21.3795 18.7193 20.9723 18.7193 20.4699L18.7124 20.3558C18.6579 19.9073 18.286 19.5602 17.8355 19.5602ZM23.6243 19.5602C23.1362 19.5602 22.7405 19.9675 22.7405 20.4699C22.7405 20.9723 23.1362 21.3795 23.6243 21.3795C24.1124 21.3795 24.5081 20.9723 24.5081 20.4699C24.5081 19.9675 24.1124 19.5602 23.6243 19.5602ZM20.7042 12.5333C18.7801 12.5333 17.2203 14.0878 17.2203 16.0053C17.2335 16.0799 17.2335 16.1563 17.2203 16.231H24.2317C24.2039 16.1589 24.1891 16.0825 24.1882 16.0053C24.1882 14.0878 22.6284 12.5333 20.7042 12.5333Z" fill="#5D7285"/>
</svg>
