<svg width="33" height="32" viewBox="0 0 33 32" fill="none" xmlns="http://www.w3.org/2000/svg">
<path d="M27.2666 18.3332C27.2666 17.7809 26.8189 17.3332 26.2666 17.3332H22.2666C21.7143 17.3332 21.2666 17.7809 21.2666 18.3332V27.3332H19.2666V5.6665C19.2666 4.69543 19.2645 4.06771 19.2023 3.60521C19.144 3.17147 19.0499 3.03552 18.9737 2.9594C18.8976 2.88327 18.7617 2.78912 18.3279 2.73081C17.8654 2.66863 17.2377 2.6665 16.2666 2.6665C15.2955 2.6665 14.6678 2.66863 14.2053 2.73081C13.7716 2.78912 13.6356 2.88327 13.5595 2.9594C13.4834 3.03552 13.3892 3.17147 13.3309 3.60521C13.2687 4.06771 13.2666 4.69542 13.2666 5.6665V27.3332H11.2666V11.6665C11.2666 11.1142 10.8189 10.6665 10.2666 10.6665H6.26662C5.71434 10.6665 5.26662 11.1142 5.26662 11.6665V27.3332H3.26662H2.93329C2.381 27.3332 1.93329 27.7809 1.93329 28.3332C1.93329 28.8855 2.381 29.3332 2.93329 29.3332H29.6C30.1522 29.3332 30.6 28.8855 30.6 28.3332C30.6 27.7809 30.1522 27.3332 29.6 27.3332H29.2666H27.2666V18.3332Z" fill="#5D7285"/>
</svg>
