<svg width="42" height="42" viewBox="0 0 42 42" fill="none" xmlns="http://www.w3.org/2000/svg">
<path d="M16.6583 22.2236C18.0683 22.2236 19.1983 23.3646 19.1983 24.7846V28.1936C19.1983 29.6036 18.0683 30.7536 16.6583 30.7536H13.2783C11.8783 30.7536 10.7383 29.6036 10.7383 28.1936V24.7846C10.7383 23.3646 11.8783 22.2236 13.2783 22.2236H16.6583ZM28.1984 22.2236C29.5984 22.2236 30.7384 23.3646 30.7384 24.7846V28.1936C30.7384 29.6036 29.5984 30.7536 28.1984 30.7536H24.8184C23.4084 30.7536 22.2784 29.6036 22.2784 28.1936V24.7846C22.2784 23.3646 23.4084 22.2236 24.8184 22.2236H28.1984ZM16.6583 10.7539C18.0683 10.7539 19.1983 11.9039 19.1983 13.3149V16.7239C19.1983 18.1439 18.0683 19.2839 16.6583 19.2839H13.2783C11.8783 19.2839 10.7383 18.1439 10.7383 16.7239V13.3149C10.7383 11.9039 11.8783 10.7539 13.2783 10.7539H16.6583ZM28.1984 10.7539C29.5984 10.7539 30.7384 11.9039 30.7384 13.3149V16.7239C30.7384 18.1439 29.5984 19.2839 28.1984 19.2839H24.8184C23.4084 19.2839 22.2784 18.1439 22.2784 16.7239V13.3149C22.2784 11.9039 23.4084 10.7539 24.8184 10.7539H28.1984Z" fill="#5D7285"/>
</svg>
