<svg width="26" height="27" viewBox="0 0 26 27" fill="none" xmlns="http://www.w3.org/2000/svg">
<path d="M16.5884 3.92986C17.2154 4.17943 17.6588 4.62927 18.0562 5.28876L18.1872 5.51637L18.673 6.44797L18.689 6.47398L18.7035 6.49663L18.7448 6.55304C18.9662 6.79423 19.3366 6.93993 19.5811 6.93993C21.8208 6.93993 23.6501 8.69888 23.7623 10.9101L23.7677 11.1255V17.3512C23.7677 20.2218 21.5007 22.5644 18.6599 22.6857L18.4283 22.6906H7.62064C4.74934 22.6906 2.40745 20.4239 2.28618 17.5828L2.28125 17.3512V11.1255C2.28125 8.81419 4.15592 6.93993 6.46789 6.93993C6.71152 6.93993 7.08249 6.79402 7.30419 6.55304L7.31183 6.54403L7.32139 6.53151L7.37664 6.44677L7.8611 5.51667C8.29292 4.73185 8.76268 4.2072 9.45976 3.92976C10.7371 3.42184 15.312 3.42184 16.5884 3.92986ZM10.0554 5.4271C9.8176 5.52177 9.60226 5.74089 9.37245 6.12077L9.27297 6.29352L8.85951 7.09292L8.75774 7.27709C8.67279 7.41839 8.58782 7.53767 8.49079 7.64339C7.99615 8.18105 7.28596 8.49158 6.65463 8.5436L6.46789 8.55142L6.2916 8.55736C5.01001 8.64402 3.98536 9.66842 3.89868 10.9493L3.89274 11.1255V17.3512C3.89274 19.3412 5.45238 20.9674 7.4161 21.0736L7.62064 21.0791H18.4283C20.4179 21.0791 22.0445 19.5188 22.1507 17.5557L22.1562 17.3512V11.1255C22.1562 9.76349 21.0972 8.64796 19.7574 8.55736L19.5811 8.55142L19.394 8.5436C18.7618 8.49157 18.0516 8.18095 17.5575 7.64268C17.4618 7.53836 17.3773 7.41993 17.2928 7.27982L17.2725 7.24508L17.2484 7.20195L17.1236 6.96802L16.7757 6.29381C16.5407 5.86719 16.3255 5.60646 16.0932 5.47543L15.9925 5.4271L15.8643 5.38449C14.7586 5.07199 10.9128 5.08619 10.0554 5.4271ZM13.0242 10.2088C15.3557 10.2088 17.2452 12.0983 17.2452 14.4298C17.2452 16.7613 15.3557 18.6508 13.0242 18.6508C10.6927 18.6508 8.80315 16.7613 8.80315 14.4298C8.80315 12.0983 10.6927 10.2088 13.0242 10.2088ZM13.0242 11.8203C11.5827 11.8203 10.4146 12.9883 10.4146 14.4298C10.4146 15.8713 11.5827 17.0393 13.0242 17.0393C14.4657 17.0393 15.6337 15.8713 15.6337 14.4298C15.6337 12.9883 14.4657 11.8203 13.0242 11.8203ZM18.9379 9.45783C19.5312 9.45783 20.0122 9.93882 20.0122 10.5322C20.0122 11.0831 19.5975 11.5372 19.0632 11.5992L18.9379 11.6065C18.3349 11.6065 17.8539 11.1255 17.8539 10.5322C17.8539 9.9812 18.2686 9.52711 18.8029 9.46505L18.9379 9.45783Z" fill="#235A91"/>
</svg>
