<svg width="42" height="42" viewBox="0 0 42 42" fill="none" xmlns="http://www.w3.org/2000/svg">
<path d="M20.7583 11.2769C26.4383 11.2769 30.7383 15.9338 30.7383 21.2618C30.7383 27.4411 25.6983 31.2769 20.7383 31.2769C19.0983 31.2769 17.2783 30.8362 15.8183 29.9749C15.3083 29.6644 14.8783 29.4341 14.3283 29.6144L12.3083 30.2153C11.7983 30.3755 11.3383 29.9749 11.4883 29.4341L12.1583 27.1907C12.2683 26.8803 12.2483 26.5498 12.0883 26.2894C11.2283 24.707 10.7383 22.9744 10.7383 21.2919C10.7383 16.024 14.9483 11.2769 20.7583 11.2769ZM25.3283 20.02C24.6183 20.02 24.0483 20.5908 24.0483 21.3019C24.0483 22.0029 24.6183 22.5838 25.3283 22.5838C26.0383 22.5838 26.6083 22.0029 26.6083 21.3019C26.6083 20.5908 26.0383 20.02 25.3283 20.02ZM20.7183 20.02C20.0183 20.01 19.4383 20.5908 19.4383 21.2919C19.4383 22.0029 20.0083 22.5738 20.7183 22.5838C21.4283 22.5838 21.9983 22.0029 21.9983 21.3019C21.9983 20.5908 21.4283 20.02 20.7183 20.02ZM16.1083 20.02C15.3983 20.02 14.8283 20.5908 14.8283 21.3019C14.8283 22.0029 15.4083 22.5838 16.1083 22.5838C16.8183 22.5738 17.3883 22.0029 17.3883 21.3019C17.3883 20.5908 16.8183 20.02 16.1083 20.02Z" fill="#5D7285"/>
</svg>
