<svg width="33" height="32" viewBox="0 0 33 32" fill="none" xmlns="http://www.w3.org/2000/svg">
<path d="M28.5906 8.4375L22.0281 6.5625L20.1531 0H7.02814C5.47482 0 4.21564 1.25919 4.21564 2.8125V29.1875C4.21564 30.7408 5.47482 32 7.02814 32H25.7781C27.3314 32 28.5906 30.7408 28.5906 29.1875V8.4375Z" fill="#A8353A"/>
<path d="M28.5906 8.4375V29.1875C28.5906 30.7408 27.3314 32 25.7781 32H16.4031V0H20.1531L22.0281 6.5625L28.5906 8.4375Z" fill="#A8353A"/>
<path d="M28.5906 8.4375H22.0281C20.9969 8.4375 20.1531 7.59375 20.1531 6.5625V0C20.3969 0 20.6406 0.09375 20.8093 0.281312L28.3093 7.78131C28.4969 7.95 28.5906 8.19375 28.5906 8.4375Z" fill="#A8353A"/>
<path d="M22.0281 15.0625H10.7781C10.2599 15.0625 9.84064 14.6432 9.84064 14.125C9.84064 13.6068 10.2599 13.1875 10.7781 13.1875H22.0281C22.5463 13.1875 22.9656 13.6068 22.9656 14.125C22.9656 14.6432 22.5463 15.0625 22.0281 15.0625Z" fill="#FFF5F5"/>
<path d="M22.0281 18.8125H10.7781C10.2599 18.8125 9.84064 18.3932 9.84064 17.875C9.84064 17.3568 10.2599 16.9375 10.7781 16.9375H22.0281C22.5463 16.9375 22.9656 17.3568 22.9656 17.875C22.9656 18.3932 22.5463 18.8125 22.0281 18.8125Z" fill="#FFF5F5"/>
<path d="M22.0281 22.5625H10.7781C10.2599 22.5625 9.84064 22.1432 9.84064 21.625C9.84064 21.1068 10.2599 20.6875 10.7781 20.6875H22.0281C22.5463 20.6875 22.9656 21.1068 22.9656 21.625C22.9656 22.1432 22.5463 22.5625 22.0281 22.5625Z" fill="#FFF5F5"/>
<path d="M18.2781 26.3125H10.7781C10.2599 26.3125 9.84064 25.8932 9.84064 25.375C9.84064 24.8568 10.2599 24.4375 10.7781 24.4375H18.2781C18.7963 24.4375 19.2156 24.8568 19.2156 25.375C19.2156 25.8932 18.7963 26.3125 18.2781 26.3125Z" fill="#FFF5F5"/>
<path d="M16.4031 26.3125H18.2781C18.7963 26.3125 19.2156 25.8932 19.2156 25.375C19.2156 24.8568 18.7963 24.4375 18.2781 24.4375H16.4031V26.3125Z" fill="#E3E7EA"/>
<path d="M16.4031 22.5625H22.0281C22.5463 22.5625 22.9656 22.1432 22.9656 21.625C22.9656 21.1068 22.5463 20.6875 22.0281 20.6875H16.4031V22.5625Z" fill="#E3E7EA"/>
<path d="M16.4031 18.8125H22.0281C22.5463 18.8125 22.9656 18.3932 22.9656 17.875C22.9656 17.3568 22.5463 16.9375 22.0281 16.9375H16.4031V18.8125Z" fill="#E3E7EA"/>
<path d="M16.4031 15.0625H22.0281C22.5463 15.0625 22.9656 14.6432 22.9656 14.125C22.9656 13.6068 22.5463 13.1875 22.0281 13.1875H16.4031V15.0625Z" fill="#E3E7EA"/>
</svg>
