<svg width="22" height="12" viewBox="0 0 22 12" fill="none" xmlns="http://www.w3.org/2000/svg">
<path fill-rule="evenodd" clip-rule="evenodd" d="M0.606096 0.0808672C1.11373 -0.136688 1.7016 0.0984632 1.91916 0.606093L1.00001 1.00001C1.91916 0.606093 1.9193 0.606419 1.91916 0.606093L1.91864 0.604892C1.91836 0.604244 1.91857 0.604717 1.91864 0.604892L1.92256 0.613759C1.92657 0.622772 1.93345 0.63809 1.94325 0.659293C1.96284 0.701714 1.99403 0.767593 2.03702 0.85358C2.12308 1.0257 2.256 1.27747 2.43743 1.58228C2.80143 2.1938 3.35445 3.00825 4.10781 3.81956C4.28538 4.01079 4.4733 4.2011 4.67179 4.38806C4.68009 4.3956 4.68829 4.40331 4.6964 4.41117C6.18108 5.80141 8.25233 7.00001 11 7.00001C12.209 7.00001 13.2784 6.7692 14.2209 6.3982C15.447 5.91563 16.4746 5.18913 17.3156 4.39972C18.2653 3.50839 18.9628 2.55005 19.4233 1.81101C19.6526 1.44292 19.8207 1.13319 19.9299 0.9191C19.9845 0.812168 20.0241 0.729438 20.0492 0.67562C20.0617 0.648721 20.0706 0.62908 20.0759 0.617286L20.0809 0.606093C20.2986 0.0987399 20.8864 -0.136631 21.3939 0.0808672C21.9016 0.298423 22.1367 0.886302 21.9192 1.39393L21 1.00001C21.9192 1.39393 21.9193 1.3937 21.9192 1.39393L21.917 1.39895L21.9134 1.40718L21.902 1.43302C21.8925 1.45435 21.8791 1.48378 21.8619 1.52072C21.8274 1.59458 21.7775 1.69856 21.7116 1.82775C21.5799 2.08591 21.384 2.44609 21.1207 2.86869C20.7181 3.51484 20.1521 4.31621 19.4097 5.1243L20.2071 5.92174C20.5976 6.31227 20.5976 6.94543 20.2071 7.33596C19.8166 7.72648 19.1834 7.72648 18.7929 7.33596L17.9527 6.49578C17.3885 6.95152 16.757 7.38138 16.0558 7.75221L16.8382 8.95463C17.1394 9.41754 17.0083 10.037 16.5454 10.3382C16.0825 10.6394 15.463 10.5083 15.1618 10.0454L14.1764 8.53088C13.4974 8.73902 12.772 8.88653 12 8.95568V10.5C12 11.0523 11.5523 11.5 11 11.5C10.4477 11.5 10 11.0523 10 10.5V8.95582C9.22537 8.88662 8.5002 8.73881 7.8234 8.53128L6.8382 10.0454C6.53699 10.5083 5.91755 10.6394 5.45463 10.3382C4.99171 10.037 4.86062 9.41754 5.16183 8.95463L5.94423 7.75218C5.24411 7.38164 4.61252 6.95179 4.04752 6.49556L3.20712 7.33596C2.8166 7.72648 2.18343 7.72648 1.79291 7.33596C1.40238 6.94543 1.40238 6.31227 1.79291 5.92174L2.59035 5.1243C1.74536 4.20455 1.12778 3.29225 0.718847 2.60525C0.509658 2.25381 0.35351 1.9587 0.248166 1.74801C0.195456 1.64259 0.155351 1.55808 0.127582 1.49796C0.113695 1.46789 0.102881 1.4439 0.0951097 1.42643L0.085725 1.40514L0.082733 1.39826L0.0816605 1.39577L0.08123 1.39477C0.081044 1.39434 0.0808698 1.39393 1.00001 1.00001L0.08123 1.39477C-0.136326 0.887141 0.0984657 0.298423 0.606096 0.0808672Z" fill="#637381"/>
</svg>
