<svg width="25" height="25" viewBox="0 0 25 25" fill="none" xmlns="http://www.w3.org/2000/svg">
<path d="M8.65837 13.7929C10.0684 13.7929 11.1984 14.9339 11.1984 16.3539V19.7629C11.1984 21.1729 10.0684 22.3229 8.65837 22.3229H5.27837C3.87837 22.3229 2.73837 21.1729 2.73837 19.7629V16.3539C2.73837 14.9339 3.87837 13.7929 5.27837 13.7929H8.65837ZM20.1985 13.7929C21.5985 13.7929 22.7385 14.9339 22.7385 16.3539V19.7629C22.7385 21.1729 21.5985 22.3229 20.1985 22.3229H16.8185C15.4085 22.3229 14.2785 21.1729 14.2785 19.7629V16.3539C14.2785 14.9339 15.4085 13.7929 16.8185 13.7929H20.1985ZM8.65837 2.32324C10.0684 2.32324 11.1984 3.47324 11.1984 4.88424V8.29324C11.1984 9.71324 10.0684 10.8532 8.65837 10.8532H5.27837C3.87837 10.8532 2.73837 9.71324 2.73837 8.29324V4.88424C2.73837 3.47324 3.87837 2.32324 5.27837 2.32324H8.65837ZM20.1985 2.32324C21.5985 2.32324 22.7385 3.47324 22.7385 4.88424V8.29324C22.7385 9.71324 21.5985 10.8532 20.1985 10.8532H16.8185C15.4085 10.8532 14.2785 9.71324 14.2785 8.29324V4.88424C14.2785 3.47324 15.4085 2.32324 16.8185 2.32324H20.1985Z" fill="#5D7285"/>
</svg>
