<svg width="25" height="25" viewBox="0 0 25 25" fill="none" xmlns="http://www.w3.org/2000/svg">
<path d="M9.87324 21.6195V18.5618C9.87324 17.7813 10.5106 17.1485 11.2969 17.1485H14.1711C14.5487 17.1485 14.9108 17.2974 15.1778 17.5624C15.4447 17.8275 15.5947 18.187 15.5947 18.5618V21.6195C15.5923 21.944 15.7205 22.2561 15.9508 22.4864C16.1811 22.7167 16.4945 22.8462 16.8214 22.8462H18.7823C19.6981 22.8485 20.5772 22.489 21.2256 21.847C21.8741 21.205 22.2385 20.3332 22.2385 19.424V10.7131C22.2385 9.97865 21.9105 9.28203 21.3431 8.81086L14.6725 3.52206C13.5121 2.59475 11.8496 2.62469 10.7239 3.59317L4.20548 8.81086C3.6112 9.26814 3.25602 9.96683 3.23846 10.7131V19.4151C3.23846 21.31 4.78585 22.8462 6.69464 22.8462H8.61075C9.28969 22.8462 9.84146 22.3024 9.84638 21.6284L9.87324 21.6195Z" fill="#5D7285"/>
</svg>
