<svg width="42" height="42" viewBox="0 0 42 42" fill="none" xmlns="http://www.w3.org/2000/svg">
<path d="M17.8732 29.6195V26.5618C17.8732 25.7813 18.5106 25.1485 19.2969 25.1485H22.1711C22.5487 25.1485 22.9108 25.2974 23.1778 25.5624C23.4447 25.8275 23.5947 26.187 23.5947 26.5618V29.6195C23.5923 29.944 23.7205 30.2561 23.9508 30.4864C24.1811 30.7167 24.4945 30.8462 24.8214 30.8462H26.7823C27.6981 30.8485 28.5772 30.489 29.2256 29.847C29.8741 29.205 30.2385 28.3332 30.2385 27.424V18.7131C30.2385 17.9787 29.9105 17.282 29.3431 16.8109L22.6725 11.5221C21.5121 10.5948 19.8496 10.6247 18.7239 11.5932L12.2055 16.8109C11.6112 17.2681 11.256 17.9668 11.2385 18.7131V27.4151C11.2385 29.31 12.7858 30.8462 14.6946 30.8462H16.6108C17.2897 30.8462 17.8415 30.3024 17.8464 29.6284L17.8732 29.6195Z" fill="#5D7285"/>
</svg>
