<svg width="32" height="32" viewBox="0 0 32 32" fill="none" xmlns="http://www.w3.org/2000/svg">
<circle cx="16" cy="16" r="16" fill="#F3FFF5"/>
<path opacity="0.05" fill-rule="evenodd" clip-rule="evenodd" d="M21.482 9.74902C22.0449 9.86885 22.4202 10.3219 22.4793 10.8943C22.5669 11.7431 22.6666 13.3014 22.6666 15.9993C22.6666 18.6973 22.5669 20.2556 22.4793 21.1043C22.4202 21.6768 22.0449 22.1299 21.482 22.2497C20.5936 22.4388 18.9189 22.666 16 22.666C13.081 22.666 11.4063 22.4388 10.5179 22.2497C9.95503 22.1299 9.57972 21.6768 9.52063 21.1043C9.43296 20.2556 9.33329 18.6973 9.33329 15.9993C9.33329 13.3014 9.43296 11.7431 9.52063 10.8943C9.57972 10.3219 9.95503 9.86885 10.5179 9.74902C11.4063 9.55988 13.081 9.33268 16 9.33268C18.9189 9.33268 20.5936 9.55988 21.482 9.74902ZM12.6666 18.4176V13.842C12.6709 13.6021 12.7691 13.3735 12.94 13.2054C13.1109 13.0373 13.3409 12.9431 13.5804 12.9431C13.82 12.9431 14.05 13.0373 14.2209 13.2054C14.3918 13.3735 14.4899 13.6021 14.4942 13.842V16.2213L17.7669 12.9358C18.1249 12.5764 18.7065 12.576 19.0649 12.935C19.422 13.2927 19.4231 13.8714 19.066 14.2292C17.9173 15.3801 16.2025 17.091 15.7735 17.5024H18.1494C18.3889 17.5067 18.6172 17.605 18.7851 17.7762C18.9529 17.9473 19.047 18.1777 19.047 18.4176C19.047 18.6575 18.9529 18.8878 18.7851 19.0589C18.6172 19.2301 18.3889 19.3284 18.1494 19.3327L13.5804 19.3327C13.3383 19.332 13.1063 19.2353 12.9351 19.0639C12.7639 18.8924 12.6673 18.66 12.6666 18.4176Z" fill="#049815"/>
<path d="M12.6667 13.8433L12.6667 18.4189C12.6674 18.6613 12.7639 18.8937 12.9352 19.0652C13.1064 19.2366 13.3384 19.3333 13.5805 19.334H18.1495C18.389 19.3297 18.6173 19.2314 18.7851 19.0602C18.953 18.8891 19.0471 18.6588 19.0471 18.4189C19.0471 18.179 18.953 17.9486 18.7851 17.7775C18.6173 17.6063 18.389 17.508 18.1495 17.5038H15.7736C16.2026 17.0923 17.9173 15.3814 19.0661 14.2305C19.4232 13.8727 19.4221 13.294 19.065 12.9363C18.7065 12.5773 18.125 12.5777 17.767 12.9371L14.4943 16.2226L14.4943 13.8433C14.49 13.6034 14.3919 13.3748 14.221 13.2067C14.05 13.0386 13.8201 12.9444 13.5805 12.9444C13.3409 12.9444 13.111 13.0386 12.9401 13.2067C12.7692 13.3748 12.671 13.6034 12.6667 13.8433Z" fill="#049815"/>
</svg>
