<svg width="24" height="25" viewBox="0 0 24 25" fill="none" xmlns="http://www.w3.org/2000/svg">
<path d="M11.4927 2.52295C13.9753 2.52295 16 4.51295 16 6.96295V11.7529H9.89535C9.45785 11.7529 9.11192 12.093 9.11192 12.523C9.11192 12.943 9.45785 13.293 9.89535 13.293H16V18.073C16 20.523 13.9753 22.523 11.4724 22.523H6.51744C4.02471 22.523 2 20.533 2 18.083V6.97295C2 4.51295 4.03488 2.52295 6.52762 2.52295H11.4927ZM18.5402 9.07315C18.8402 8.76315 19.3302 8.76315 19.6302 9.06315L22.5502 11.9732C22.7002 12.1232 22.7802 12.3132 22.7802 12.5232C22.7802 12.7232 22.7002 12.9232 22.5502 13.0632L19.6302 15.9732C19.4802 16.1232 19.2802 16.2032 19.0902 16.2032C18.8902 16.2032 18.6902 16.1232 18.5402 15.9732C18.2402 15.6732 18.2402 15.1832 18.5402 14.8832L20.1402 13.2931H16.0002V11.7531H20.1402L18.5402 10.1632C18.2402 9.86315 18.2402 9.37315 18.5402 9.07315Z" fill="white"/>
</svg>
