<svg width="32" height="32" viewBox="0 0 32 32" fill="none" xmlns="http://www.w3.org/2000/svg">
<path d="M11.1357 26.989C12.2572 28.4145 14.0189 29.3332 16 29.3332C17.9811 29.3332 19.7428 28.4145 20.8643 26.989C17.6352 27.4265 14.3648 27.4265 11.1357 26.989Z" fill="#5D7285"/>
<path fill-rule="evenodd" clip-rule="evenodd" d="M24.9988 12.9386V11.9998C24.9988 6.84518 20.9699 2.6665 16 2.6665C11.0301 2.6665 7.00116 6.84518 7.00116 11.9998V12.9386C7.00116 14.0653 6.67962 15.1667 6.07706 16.1042L4.60048 18.4014C3.25176 20.4996 4.2814 23.3517 6.62715 24.0152C12.7637 25.751 19.2363 25.751 25.3729 24.0152C27.7186 23.3517 28.7482 20.4996 27.3995 18.4014L25.9229 16.1042C25.3204 15.1667 24.9988 14.0653 24.9988 12.9386ZM16 6.99984C16.5523 6.99984 17 7.44755 17 7.99984V13.3332C17 13.8855 16.5523 14.3332 16 14.3332C15.4477 14.3332 15 13.8855 15 13.3332V7.99984C15 7.44755 15.4477 6.99984 16 6.99984Z" fill="#5D7285"/>
</svg>
