<svg width="42" height="42" viewBox="0 0 42 42" fill="none" xmlns="http://www.w3.org/2000/svg">
<path d="M27.2994 22.6812C29.1994 22.6812 30.7383 24.1942 30.7383 26.0608C30.7383 27.9264 29.1994 29.4394 27.2994 29.4394C25.4006 29.4394 23.8606 27.9264 23.8606 26.0608C23.8606 24.1942 25.4006 22.6812 27.2994 22.6812ZM18.8216 24.6196C19.6538 24.6196 20.3294 25.2833 20.3294 26.1009C20.3294 26.9174 19.6538 27.5822 18.8216 27.5822H12.2461C11.4139 27.5822 10.7383 26.9174 10.7383 26.1009C10.7383 25.2833 11.4139 24.6196 12.2461 24.6196H18.8216ZM14.1772 11.6616C16.0772 11.6616 17.6161 13.1746 17.6161 15.0402C17.6161 16.9068 16.0772 18.4198 14.1772 18.4198C12.2783 18.4198 10.7383 16.9068 10.7383 15.0402C10.7383 13.1746 12.2783 11.6616 14.1772 11.6616ZM29.2317 13.5599C30.0628 13.5599 30.7383 14.2237 30.7383 15.0402C30.7383 15.8578 30.0628 16.5215 29.2317 16.5215H22.6561C21.8239 16.5215 21.1484 15.8578 21.1484 15.0402C21.1484 14.2237 21.8239 13.5599 22.6561 13.5599H29.2317Z" fill="#5D7285"/>
</svg>
