<svg width="32" height="32" viewBox="0 0 32 32" fill="none" xmlns="http://www.w3.org/2000/svg">
<circle cx="16" cy="16" r="16" fill="#FFF6F6"/>
<path opacity="0.05" fill-rule="evenodd" clip-rule="evenodd" d="M10.518 22.251C9.95511 22.1312 9.57981 21.6781 9.5207 21.1057C9.43305 20.2569 9.33337 18.6986 9.33337 16.0007C9.33337 13.3027 9.43305 11.7444 9.5207 10.8957C9.57981 10.3232 9.95511 9.87014 10.518 9.75032C11.4064 9.56119 13.0811 9.33398 16 9.33398C18.919 9.33398 20.5937 9.56119 21.4821 9.75032C22.045 9.87014 22.4203 10.3232 22.4794 10.8957C22.567 11.7444 22.6667 13.3027 22.6667 16.0007C22.6667 18.6986 22.567 20.2569 22.4794 21.1057C22.4203 21.6781 22.045 22.1312 21.4821 22.251C20.5937 22.4401 18.919 22.6673 16 22.6673C13.0811 22.6673 11.4064 22.4401 10.518 22.251ZM19.3334 13.5824V18.158C19.3291 18.3979 19.2309 18.6265 19.06 18.7946C18.8891 18.9627 18.6591 19.0569 18.4196 19.0569C18.18 19.0569 17.95 18.9627 17.7791 18.7946C17.6082 18.6265 17.5101 18.3979 17.5058 18.158V15.7787L14.2331 19.0642C13.8751 19.4236 13.2935 19.424 12.9351 19.065C12.578 18.7073 12.5769 18.1286 12.934 17.7708C14.0827 16.6199 15.7975 14.909 16.2265 14.4976H13.8506C13.6111 14.4933 13.3828 14.395 13.2149 14.2238C13.0471 14.0527 12.953 13.8223 12.953 13.5824C12.953 13.3425 13.0471 13.1122 13.2149 12.9411C13.3828 12.7699 13.6111 12.6716 13.8506 12.6673H18.4196C18.6617 12.668 18.8937 12.7647 19.0649 12.9361C19.2361 13.1076 19.3327 13.34 19.3334 13.5824Z" fill="#FF3B30"/>
<path d="M19.3333 18.1567V13.5811C19.3326 13.3387 19.2361 13.1063 19.0648 12.9348C18.8936 12.7634 18.6616 12.6667 18.4195 12.666H13.8505C13.611 12.6703 13.3827 12.7686 13.2149 12.9398C13.047 13.1109 12.9529 13.3412 12.9529 13.5811C12.9529 13.821 13.047 14.0514 13.2149 14.2225C13.3827 14.3937 13.611 14.492 13.8505 14.4962H16.2264C15.7974 14.9077 14.0827 16.6186 12.9339 17.7695C12.5768 18.1273 12.5779 18.706 12.935 19.0637C13.2935 19.4227 13.875 19.4223 14.233 19.0629L17.5057 15.7774V18.1567C17.51 18.3966 17.6081 18.6252 17.779 18.7933C17.95 18.9614 18.1799 19.0556 18.4195 19.0556C18.6591 19.0556 18.889 18.9614 19.0599 18.7933C19.2308 18.6252 19.329 18.3966 19.3333 18.1567Z" fill="#FF3B30"/>
</svg>
