<svg width="42" height="42" viewBox="0 0 42 42" fill="none" xmlns="http://www.w3.org/2000/svg">
<path d="M25.0723 11.3232C28.4616 11.3232 30.7385 13.7014 30.7385 17.24V25.4065C30.7385 28.9451 28.4616 31.3232 25.0713 31.3232H16.4046C13.0154 31.3232 10.7385 28.9451 10.7385 25.4065V17.24C10.7385 13.7014 13.0154 11.3232 16.4046 11.3232H25.0723ZM26.1751 21.8733C25.1031 21.2046 24.2755 22.1437 24.0523 22.444C23.8371 22.734 23.6521 23.0539 23.457 23.3738C22.9803 24.1633 22.4343 25.0735 21.4891 25.6029C20.1155 26.3635 19.0727 25.6628 18.3225 25.153C18.0409 24.9631 17.7674 24.7835 17.4949 24.6638C16.8232 24.3738 16.2188 24.704 15.3219 25.8434C14.8513 26.4388 14.3847 27.0291 13.912 27.6174C13.6295 27.9693 13.6969 28.5121 14.078 28.7474C14.6863 29.122 15.4285 29.3232 16.2671 29.3232H24.6948C25.1705 29.3232 25.6471 29.2582 26.1016 29.1096C27.1253 28.7753 27.9378 28.0095 28.3622 26.9982C28.7202 26.1478 28.8941 25.1158 28.5593 24.2572C28.4477 23.9724 28.2807 23.7071 28.0464 23.4739C27.432 22.864 26.8578 22.2943 26.1751 21.8733ZM17.2373 15.3232C15.8587 15.3232 14.7385 16.445 14.7385 17.8232C14.7385 19.2015 15.8587 20.3232 17.2373 20.3232C18.615 20.3232 19.7362 19.2015 19.7362 17.8232C19.7362 16.445 18.615 15.3232 17.2373 15.3232Z" fill="#5D7285"/>
</svg>
