<svg width="25" height="25" viewBox="0 0 25 25" fill="none" xmlns="http://www.w3.org/2000/svg">
<path d="M8.48847 3.25391C8.48847 3.05499 8.40946 2.86423 8.2688 2.72358C8.12815 2.58292 7.93739 2.50391 7.73847 2.50391C7.53956 2.50391 7.3488 2.58292 7.20814 2.72358C7.06749 2.86423 6.98847 3.05499 6.98847 3.25391V4.83391C5.54847 4.94891 4.60447 5.23091 3.91047 5.92591C3.21547 6.61991 2.93347 7.56491 2.81747 9.00391H22.6595C22.5435 7.56391 22.2615 6.61991 21.5665 5.92591C20.8725 5.23091 19.9275 4.94891 18.4885 4.83291V3.25391C18.4885 3.05499 18.4095 2.86423 18.2688 2.72358C18.1282 2.58292 17.9374 2.50391 17.7385 2.50391C17.5396 2.50391 17.3488 2.58292 17.2081 2.72358C17.0675 2.86423 16.9885 3.05499 16.9885 3.25391V4.76691C16.3235 4.75391 15.5775 4.75391 14.7385 4.75391H10.7385C9.89947 4.75391 9.15347 4.75391 8.48847 4.76691V3.25391Z" fill="#5D7285"/>
<path fill-rule="evenodd" clip-rule="evenodd" d="M22.7385 12.7539C22.7385 11.9149 22.7385 11.1689 22.7255 10.5039H2.75146C2.73846 11.1689 2.73846 11.9149 2.73846 12.7539V14.7539C2.73846 18.5249 2.73846 20.4109 3.91046 21.5819C5.08246 22.7529 6.96746 22.7539 10.7385 22.7539H14.7385C18.5095 22.7539 20.3955 22.7539 21.5665 21.5819C22.7375 20.4099 22.7385 18.5249 22.7385 14.7539V12.7539ZM14.7385 13.0039C14.2743 13.0039 13.8292 13.1883 13.501 13.5165C13.1728 13.8447 12.9885 14.2898 12.9885 14.7539V16.7539C12.9885 17.218 13.1728 17.6632 13.501 17.9913C13.8292 18.3195 14.2743 18.5039 14.7385 18.5039C15.2026 18.5039 15.6477 18.3195 15.9759 17.9913C16.3041 17.6632 16.4885 17.218 16.4885 16.7539V14.7539C16.4885 14.2898 16.3041 13.8447 15.9759 13.5165C15.6477 13.1883 15.2026 13.0039 14.7385 13.0039ZM14.7385 14.5039C14.6722 14.5039 14.6086 14.5302 14.5617 14.5771C14.5148 14.624 14.4885 14.6876 14.4885 14.7539V16.7539C14.4885 16.8202 14.5148 16.8838 14.5617 16.9307C14.6086 16.9776 14.6722 17.0039 14.7385 17.0039C14.8048 17.0039 14.8684 16.9776 14.9152 16.9307C14.9621 16.8838 14.9885 16.8202 14.9885 16.7539V14.7539C14.9885 14.6876 14.9621 14.624 14.9152 14.5771C14.8684 14.5302 14.8048 14.5039 14.7385 14.5039ZM11.5255 13.0609C11.6625 13.1177 11.7797 13.2138 11.8621 13.3372C11.9445 13.4605 11.9885 13.6056 11.9885 13.7539V17.7539C11.9885 17.9528 11.9094 18.1436 11.7688 18.2842C11.6281 18.4249 11.4374 18.5039 11.2385 18.5039C11.0396 18.5039 10.8488 18.4249 10.7081 18.2842C10.5675 18.1436 10.4885 17.9528 10.4885 17.7539V15.5639L10.2685 15.7839C10.1263 15.9164 9.93824 15.9885 9.74394 15.9851C9.54964 15.9817 9.36426 15.9029 9.22684 15.7655C9.08943 15.6281 9.01072 15.4427 9.00729 15.2484C9.00386 15.0541 9.07598 14.8661 9.20846 14.7239L10.7085 13.2239C10.8133 13.119 10.9468 13.0475 11.0923 13.0185C11.2377 12.9895 11.3884 13.0043 11.5255 13.0609Z" fill="#5D7285"/>
</svg>
