<svg width="32" height="32" viewBox="0 0 32 32" fill="none" xmlns="http://www.w3.org/2000/svg">
<path fill-rule="evenodd" clip-rule="evenodd" d="M19.0384 2.86949C18.5446 2.6665 17.9186 2.6665 16.6667 2.6665C15.4147 2.6665 14.7887 2.6665 14.2949 2.86949C13.6365 3.14014 13.1135 3.65927 12.8407 4.31268C12.7163 4.61096 12.6675 4.95784 12.6485 5.46383C12.6205 6.20741 12.2362 6.8957 11.5869 7.26775C10.9376 7.63979 10.1449 7.62589 9.48198 7.27818C9.03091 7.04157 8.70385 6.91 8.38132 6.86786C7.67479 6.77555 6.96024 6.96556 6.39487 7.3961C5.97085 7.71901 5.65786 8.25703 5.03187 9.33308C4.40589 10.4091 4.09289 10.9471 4.02313 11.473C3.93011 12.1742 4.12157 12.8834 4.5554 13.4445C4.75341 13.7006 5.0317 13.9159 5.46361 14.1852C6.09855 14.5812 6.5071 15.2556 6.50705 15.9999C6.50701 16.744 6.09849 17.4184 5.4636 17.8143C5.03162 18.0837 4.7533 18.299 4.55526 18.5551C4.12144 19.1162 3.92998 19.8253 4.023 20.5265C4.09276 21.0524 4.40575 21.5905 5.03174 22.6665C5.65772 23.7425 5.97072 24.2806 6.39474 24.6035C6.96011 25.034 7.67466 25.224 8.38119 25.1317C8.7037 25.0896 9.03074 24.958 9.48177 24.7214C10.1447 24.3737 10.9375 24.3598 11.5868 24.7319C12.2362 25.104 12.6204 25.7923 12.6485 26.5359C12.6675 27.0419 12.7163 27.3887 12.8407 27.687C13.1135 28.3404 13.6365 28.8595 14.2949 29.1302C14.7887 29.3332 15.4147 29.3332 16.6667 29.3332C17.9186 29.3332 18.5446 29.3332 19.0384 29.1302C19.6968 28.8595 20.2199 28.3404 20.4926 27.687C20.6171 27.3887 20.6658 27.0418 20.6849 26.5358C20.7129 25.7922 21.0971 25.104 21.7464 24.7319C22.3957 24.3598 23.1885 24.3736 23.8515 24.7214C24.3025 24.9579 24.6295 25.0895 24.952 25.1316C25.6585 25.2239 26.3731 25.0339 26.9385 24.6034C27.3625 24.2805 27.6755 23.7425 28.3015 22.6664C28.9275 21.5904 29.2404 21.0523 29.3102 20.5264C29.4032 19.8253 29.2118 19.1161 28.7779 18.555C28.5799 18.2989 28.3016 18.0836 27.8697 17.8142C27.2347 17.4183 26.8262 16.7439 26.8263 15.9997C26.8263 15.2556 27.2348 14.5813 27.8697 14.1854C28.3017 13.916 28.58 13.7007 28.7781 13.4446C29.2119 12.8835 29.4034 12.1743 29.3103 11.4731C29.2406 10.9472 28.9276 10.4092 28.3016 9.33317C27.6756 8.25713 27.3626 7.7191 26.9386 7.39619C26.3732 6.96565 25.6587 6.77564 24.9521 6.86795C24.6296 6.91009 24.3026 7.04165 23.8516 7.27823C23.1886 7.62596 22.3959 7.63986 21.7465 7.26779C21.0971 6.89571 20.7129 6.20738 20.6849 5.46376C20.6658 4.95781 20.6171 4.61094 20.4926 4.31268C20.2199 3.65927 19.6968 3.14014 19.0384 2.86949ZM16.6667 19.9998C18.8926 19.9998 20.6971 18.209 20.6971 15.9998C20.6971 13.7907 18.8926 11.9998 16.6667 11.9998C14.4407 11.9998 12.6362 13.7907 12.6362 15.9998C12.6362 18.209 14.4407 19.9998 16.6667 19.9998Z" fill="#5D7285"/>
</svg>
