<svg width="42" height="42" viewBox="0 0 42 42" fill="none" xmlns="http://www.w3.org/2000/svg">
<path d="M21.4556 11.1846C22.2119 11.1846 22.8966 11.6046 23.2747 12.2246C23.4587 12.5246 23.5813 12.8946 23.5506 13.2846C23.5302 13.5846 23.6222 13.8846 23.7857 14.1646C24.3069 15.0146 25.4617 15.3346 26.361 14.8546C27.3728 14.2746 28.6502 14.6246 29.2327 15.6146L29.9174 16.7946C30.5102 17.7846 30.1831 19.0546 29.1612 19.6246C28.2925 20.1346 27.9859 21.2646 28.5071 22.1246C28.6706 22.3946 28.8546 22.6246 29.1407 22.7646C29.4984 22.9546 29.7744 23.2546 29.9685 23.5546C30.3467 24.1746 30.316 24.9346 29.9481 25.6046L29.2327 26.8046C28.8546 27.4446 28.1495 27.8446 27.4239 27.8446C27.0662 27.8446 26.6676 27.7446 26.3406 27.5446C26.0749 27.3746 25.7683 27.3146 25.4413 27.3146C24.4295 27.3146 23.5813 28.1446 23.5506 29.1346C23.5506 30.2846 22.6104 31.1846 21.4352 31.1846H20.0453C18.8599 31.1846 17.9197 30.2846 17.9197 29.1346C17.8992 28.1446 17.051 27.3146 16.0393 27.3146C15.702 27.3146 15.3954 27.3746 15.1399 27.5446C14.8129 27.7446 14.4041 27.8446 14.0567 27.8446C13.3208 27.8446 12.6157 27.4446 12.2376 26.8046L11.5324 25.6046C11.1543 24.9546 11.1339 24.1746 11.512 23.5546C11.6755 23.2546 11.9821 22.9546 12.3295 22.7646C12.6157 22.6246 12.7997 22.3946 12.9734 22.1246C13.4844 21.2646 13.1778 20.1346 12.3091 19.6246C11.2974 19.0546 10.9703 17.7846 11.5529 16.7946L12.2376 15.6146C12.8303 14.6246 14.0975 14.2746 15.1195 14.8546C16.0086 15.3346 17.1634 15.0146 17.6846 14.1646C17.8481 13.8846 17.9401 13.5846 17.9197 13.2846C17.8992 12.8946 18.0116 12.5246 18.2058 12.2246C18.5839 11.6046 19.2686 11.2046 20.0147 11.1846H21.4556ZM20.7505 18.3646C19.146 18.3646 17.8481 19.6246 17.8481 21.1946C17.8481 22.7646 19.146 24.0146 20.7505 24.0146C22.355 24.0146 23.6222 22.7646 23.6222 21.1946C23.6222 19.6246 22.355 18.3646 20.7505 18.3646Z" fill="#5D7285"/>
</svg>
