<svg width="32" height="32" viewBox="0 0 32 32" fill="none" xmlns="http://www.w3.org/2000/svg">
<path fill-rule="evenodd" clip-rule="evenodd" d="M29.3334 15.9998C29.3334 23.3636 23.3639 29.3332 16.0001 29.3332C8.63628 29.3332 2.66675 23.3636 2.66675 15.9998C2.66675 8.63604 8.63628 2.6665 16.0001 2.6665C23.3639 2.6665 29.3334 8.63604 29.3334 15.9998ZM20.0001 11.9998C20.0001 14.209 18.2092 15.9998 16.0001 15.9998C13.7909 15.9998 12.0001 14.209 12.0001 11.9998C12.0001 9.7907 13.7909 7.99984 16.0001 7.99984C18.2092 7.99984 20.0001 9.7907 20.0001 11.9998ZM16.0001 27.3332C18.3788 27.3332 20.5864 26.6003 22.4093 25.3481C23.2145 24.795 23.5585 23.7415 23.0904 22.8841C22.12 21.1068 20.1204 19.9998 16 19.9998C11.8797 19.9998 9.88004 21.1068 8.9096 22.8841C8.44148 23.7414 8.78555 24.7949 9.59069 25.348C11.4137 26.6003 13.6213 27.3332 16.0001 27.3332Z" fill="#5D7285"/>
</svg>
