<svg width="42" height="42" viewBox="0 0 42 42" fill="none" xmlns="http://www.w3.org/2000/svg">
<path d="M24.9295 10.7998C28.0185 10.7998 29.7385 12.5798 29.7385 15.6298V25.9598C29.7385 29.0598 28.0185 30.7998 24.9295 30.7998H16.5485C13.5085 30.7998 11.7385 29.0598 11.7385 25.9598V15.6298C11.7385 12.5798 13.5085 10.7998 16.5485 10.7998H24.9295ZM16.8185 24.5398C16.5185 24.5098 16.2285 24.6498 16.0685 24.9098C15.9085 25.1598 15.9085 25.4898 16.0685 25.7498C16.2285 25.9998 16.5185 26.1498 16.8185 26.1098H24.6585C25.0575 26.0698 25.3585 25.7288 25.3585 25.3298C25.3585 24.9198 25.0575 24.5798 24.6585 24.5398H16.8185ZM24.6585 19.9788H16.8185C16.3875 19.9788 16.0385 20.3298 16.0385 20.7598C16.0385 21.1898 16.3875 21.5398 16.8185 21.5398H24.6585C25.0885 21.5398 25.4385 21.1898 25.4385 20.7598C25.4385 20.3298 25.0885 19.9788 24.6585 19.9788ZM19.8075 15.4498H16.8185V15.4598C16.3875 15.4598 16.0385 15.8098 16.0385 16.2398C16.0385 16.6698 16.3875 17.0198 16.8185 17.0198H19.8075C20.2385 17.0198 20.5885 16.6698 20.5885 16.2288C20.5885 15.7998 20.2385 15.4498 19.8075 15.4498Z" fill="#5D7285"/>
</svg>
