<svg width="21" height="21" viewBox="0 0 21 21" fill="none" xmlns="http://www.w3.org/2000/svg">
<mask id="mask0_1188_10543" style="mask-type:luminance" maskUnits="userSpaceOnUse" x="0" y="0" width="21" height="21">
<path d="M18.2385 1.18359H3.23846C2.84064 1.18359 2.45911 1.34163 2.1778 1.62293C1.8965 1.90424 1.73846 2.28577 1.73846 2.68359V17.6836C1.73846 18.0814 1.8965 18.4629 2.1778 18.7443C2.45911 19.0256 2.84064 19.1836 3.23846 19.1836H18.2385C18.6363 19.1836 19.0178 19.0256 19.2991 18.7443C19.5804 18.4629 19.7385 18.0814 19.7385 17.6836V2.68359C19.7385 2.28577 19.5804 1.90424 19.2991 1.62293C19.0178 1.34163 18.6363 1.18359 18.2385 1.18359Z" fill="white" stroke="white" stroke-width="2" stroke-linecap="round" stroke-linejoin="round"/>
<path d="M9.23846 13.6836L11.7385 15.6836L15.7385 10.6836M5.73846 5.68359H15.7385M5.73846 9.68359H9.73846" stroke="black" stroke-width="2" stroke-linecap="round" stroke-linejoin="round"/>
</mask>
<g mask="url(#mask0_1188_10543)">
<path d="M-1.26154 -1.81641H22.7385V22.1836H-1.26154V-1.81641Z" fill="#A8353A"/>
</g>
</svg>
