<svg width="25" height="25" viewBox="0 0 25 25" fill="none" xmlns="http://www.w3.org/2000/svg">
<path d="M12.6875 15.2471C16.1187 15.2471 19.0484 15.7911 19.0484 17.9679C19.0484 20.1437 16.1375 20.7075 12.6875 20.7075C9.25631 20.7075 6.32655 20.1636 6.32655 17.9877C6.32655 15.8109 9.23751 15.2471 12.6875 15.2471ZM18.1735 13.9364C19.4853 13.9121 20.8956 14.0922 21.4167 14.2201C22.5207 14.4371 23.2469 14.8802 23.5477 15.5242C23.802 16.0528 23.802 16.6661 23.5477 17.1939C23.0875 18.1927 21.6038 18.5133 21.0272 18.5961C20.9081 18.6141 20.8123 18.5106 20.8248 18.3908C21.1194 15.6232 18.7761 14.311 18.17 14.0093C18.144 13.9958 18.1386 13.9751 18.1413 13.9625C18.1431 13.9535 18.1538 13.9391 18.1735 13.9364ZM7.05705 13.9345L7.30406 13.9368C7.32376 13.9395 7.33361 13.9539 7.3354 13.962C7.33809 13.9755 7.33272 13.9953 7.30764 14.0097C6.70056 14.3114 4.35729 15.6236 4.65188 18.3903C4.66442 18.5109 4.5695 18.6136 4.45042 18.5965C3.87378 18.5136 2.39009 18.193 1.92986 17.1943C1.67467 16.6656 1.67467 16.0532 1.92986 15.5245C2.23071 14.8806 2.95599 14.4375 4.06002 14.2195C4.58204 14.0926 5.9914 13.9124 7.30406 13.9368L7.05705 13.9345ZM12.6875 4.70752C15.0236 4.70752 16.8968 6.58979 16.8968 8.94037C16.8968 11.2901 15.0236 13.1741 12.6875 13.1741C10.3514 13.1741 8.4782 11.2901 8.4782 8.94037C8.4782 6.58979 10.3514 4.70752 12.6875 4.70752ZM18.4019 5.41342C20.6583 5.41342 22.4303 7.54875 21.8268 9.92726C21.4194 11.5285 19.9446 12.5922 18.3016 12.5489C18.1368 12.5444 17.9748 12.5291 17.8181 12.5021C17.7043 12.4823 17.647 12.3535 17.7115 12.258C18.3383 11.3304 18.6956 10.2145 18.6956 9.01674C18.6956 7.7667 18.3052 6.60132 17.6273 5.64577C17.6059 5.61605 17.5897 5.57012 17.6112 5.5359C17.6291 5.50798 17.6623 5.49357 17.6936 5.48636C17.9219 5.43953 18.1565 5.41342 18.4019 5.41342ZM7.07439 5.41333C7.31973 5.41333 7.55433 5.43944 7.78355 5.48627C7.814 5.49348 7.84802 5.50879 7.86593 5.53581C7.88652 5.57003 7.8713 5.61596 7.84981 5.64568C7.17199 6.60123 6.7816 7.76661 6.7816 9.01665C6.7816 10.2145 7.13886 11.3303 7.76564 12.2579C7.83011 12.3534 7.77281 12.4822 7.65909 12.502C7.5015 12.5299 7.34033 12.5443 7.17557 12.5488C5.53251 12.5921 4.05778 11.5284 3.65037 9.92717C3.04598 7.54866 4.81798 5.41333 7.07439 5.41333Z" fill="#A8353A"/>
</svg>
