<svg width="42" height="42" viewBox="0 0 42 42" fill="none" xmlns="http://www.w3.org/2000/svg">
<path d="M20.6875 23.2471C24.1187 23.2471 27.0484 23.7911 27.0484 25.9679C27.0484 28.1437 24.1375 28.7075 20.6875 28.7075C17.2563 28.7075 14.3266 28.1636 14.3266 25.9877C14.3266 23.8109 17.2375 23.2471 20.6875 23.2471ZM26.1735 21.9364C27.4853 21.9121 28.8956 22.0922 29.4167 22.2201C30.5207 22.4371 31.2469 22.8802 31.5477 23.5242C31.802 24.0528 31.802 24.6661 31.5477 25.1939C31.0875 26.1927 29.6038 26.5133 29.0272 26.5961C28.9081 26.6141 28.8123 26.5106 28.8248 26.3908C29.1194 23.6232 26.7761 22.311 26.17 22.0093C26.144 21.9958 26.1386 21.9751 26.1413 21.9625C26.1431 21.9535 26.1538 21.9391 26.1735 21.9364ZM15.057 21.9345L15.3041 21.9368C15.3238 21.9395 15.3336 21.9539 15.3354 21.962C15.3381 21.9755 15.3327 21.9953 15.3076 22.0097C14.7006 22.3114 12.3573 23.6236 12.6519 26.3903C12.6644 26.5109 12.5695 26.6136 12.4504 26.5965C11.8738 26.5136 10.3901 26.193 9.92986 25.1943C9.67467 24.6656 9.67467 24.0532 9.92986 23.5245C10.2307 22.8806 10.956 22.4375 12.06 22.2195C12.582 22.0926 13.9914 21.9124 15.3041 21.9368L15.057 21.9345ZM20.6875 12.7075C23.0236 12.7075 24.8968 14.5898 24.8968 16.9404C24.8968 19.2901 23.0236 21.1741 20.6875 21.1741C18.3514 21.1741 16.4782 19.2901 16.4782 16.9404C16.4782 14.5898 18.3514 12.7075 20.6875 12.7075ZM26.4019 13.4134C28.6583 13.4134 30.4303 15.5488 29.8268 17.9273C29.4194 19.5285 27.9446 20.5922 26.3016 20.5489C26.1368 20.5444 25.9748 20.5291 25.8181 20.5021C25.7043 20.4823 25.647 20.3535 25.7115 20.258C26.3383 19.3304 26.6956 18.2145 26.6956 17.0167C26.6956 15.7667 26.3052 14.6013 25.6273 13.6458C25.6059 13.6161 25.5897 13.5701 25.6112 13.5359C25.6291 13.508 25.6623 13.4936 25.6936 13.4864C25.9219 13.4395 26.1565 13.4134 26.4019 13.4134ZM15.0744 13.4133C15.3197 13.4133 15.5543 13.4394 15.7836 13.4863C15.814 13.4935 15.848 13.5088 15.8659 13.5358C15.8865 13.57 15.8713 13.616 15.8498 13.6457C15.172 14.6012 14.7816 15.7666 14.7816 17.0167C14.7816 18.2145 15.1389 19.3303 15.7656 20.2579C15.8301 20.3534 15.7728 20.4822 15.6591 20.502C15.5015 20.5299 15.3403 20.5443 15.1756 20.5488C13.5325 20.5921 12.0578 19.5284 11.6504 17.9272C11.046 15.5487 12.818 13.4133 15.0744 13.4133Z" fill="#A8353A"/>
</svg>
