<svg width="25" height="25" viewBox="0 0 25 25" fill="none" xmlns="http://www.w3.org/2000/svg">
<path d="M22.3385 20.7799C22.4223 20.8913 22.4734 21.0239 22.4861 21.1627C22.4987 21.3016 22.4724 21.4413 22.4101 21.566C22.3478 21.6907 22.2519 21.7956 22.1333 21.8689C22.0146 21.9422 21.8779 21.9809 21.7385 21.9808H3.73846C3.59918 21.9808 3.46265 21.942 3.34417 21.8688C3.22568 21.7956 3.12993 21.6908 3.06764 21.5662C3.00535 21.4416 2.97899 21.3022 2.9915 21.1634C3.004 21.0247 3.05489 20.8922 3.13846 20.7808C3.80264 19.8905 4.68822 19.1894 5.70721 18.7474C5.14863 18.2375 4.75724 17.5708 4.58442 16.8345C4.41159 16.0983 4.46541 15.327 4.73881 14.6219C5.0122 13.9168 5.4924 13.3108 6.11637 12.8835C6.74034 12.4562 7.47893 12.2275 8.23518 12.2275C8.99144 12.2275 9.73002 12.4562 10.354 12.8835C10.978 13.3108 11.4582 13.9168 11.7316 14.6219C12.005 15.327 12.0588 16.0983 11.886 16.8345C11.7131 17.5708 11.3217 18.2375 10.7632 18.7474C11.4984 19.0651 12.1665 19.5197 12.7319 20.087C13.2973 19.5197 13.9654 19.0651 14.7007 18.7474C14.1421 18.2375 13.7507 17.5708 13.5779 16.8345C13.405 16.0983 13.4588 15.327 13.7322 14.6219C14.0056 13.9168 14.4858 13.3108 15.1098 12.8835C15.7338 12.4562 16.4724 12.2275 17.2286 12.2275C17.9849 12.2275 18.7235 12.4562 19.3474 12.8835C19.9714 13.3108 20.4516 13.9168 20.725 14.6219C20.9984 15.327 21.0522 16.0983 20.8794 16.8345C20.7066 17.5708 20.3152 18.2375 19.7566 18.7474C20.7804 19.187 21.6707 19.8879 22.3385 20.7799ZM3.28846 12.0808C3.36726 12.1399 3.45692 12.1829 3.55233 12.2073C3.64774 12.2318 3.74703 12.2372 3.84453 12.2233C3.94203 12.2093 4.03584 12.1763 4.12058 12.1261C4.20533 12.076 4.27937 12.0096 4.33846 11.9308C4.79256 11.3253 5.38138 10.8339 6.0583 10.4955C6.73522 10.157 7.48164 9.98079 8.23846 9.98079C8.99528 9.98079 9.74171 10.157 10.4186 10.4955C11.0956 10.8339 11.6844 11.3253 12.1385 11.9308C12.2083 12.0239 12.2989 12.0995 12.4031 12.1516C12.5072 12.2037 12.622 12.2308 12.7385 12.2308C12.8549 12.2308 12.9697 12.2037 13.0739 12.1516C13.178 12.0995 13.2686 12.0239 13.3385 11.9308C13.7926 11.3253 14.3814 10.8339 15.0583 10.4955C15.7352 10.157 16.4816 9.98079 17.2385 9.98079C17.9953 9.98079 18.7417 10.157 19.4186 10.4955C20.0956 10.8339 20.6844 11.3253 21.1385 11.9308C21.1976 12.0096 21.2717 12.076 21.3565 12.1261C21.4413 12.1763 21.5352 12.2092 21.6327 12.2231C21.7303 12.237 21.8296 12.2315 21.925 12.207C22.0205 12.1825 22.1101 12.1395 22.1889 12.0803C22.2677 12.0212 22.3341 11.9471 22.3843 11.8623C22.4344 11.7775 22.4674 11.6836 22.4813 11.5861C22.4951 11.4885 22.4897 11.3892 22.4652 11.2938C22.4407 11.1983 22.3976 11.1086 22.3385 11.0299C21.6743 10.1397 20.7887 9.43899 19.7697 8.99735C20.3283 8.48754 20.7197 7.82076 20.8925 7.08451C21.0653 6.34827 21.0115 5.57698 20.7381 4.87187C20.4647 4.16676 19.9845 3.56079 19.3606 3.13349C18.7366 2.70619 17.998 2.47754 17.2417 2.47754C16.4855 2.47754 15.7469 2.70619 15.1229 3.13349C14.499 3.56079 14.0188 4.16676 13.7454 4.87187C13.472 5.57698 13.4182 6.34827 13.591 7.08451C13.7638 7.82076 14.1552 8.48754 14.7138 8.99735C13.9786 9.3151 13.3104 9.76974 12.745 10.337C12.1796 9.76974 11.5115 9.3151 10.7763 8.99735C11.3349 8.48754 11.7263 7.82076 11.8991 7.08451C12.0719 6.34827 12.0181 5.57698 11.7447 4.87187C11.4713 4.16676 10.9911 3.56079 10.3671 3.13349C9.74315 2.70619 9.00456 2.47754 8.24831 2.47754C7.49205 2.47754 6.75347 2.70619 6.1295 3.13349C5.50553 3.56079 5.02533 4.16676 4.75193 4.87187C4.47854 5.57698 4.42472 6.34827 4.59754 7.08451C4.77037 7.82076 5.16176 8.48754 5.72034 8.99735C4.69656 9.43749 3.80626 10.1387 3.13846 11.0308C3.07937 11.1096 3.03637 11.1992 3.01193 11.2947C2.98749 11.3901 2.98207 11.4894 2.996 11.5869C3.00993 11.6844 3.04293 11.7782 3.09311 11.8629C3.14329 11.9477 3.20967 12.0217 3.28846 12.0808Z" fill="#5D7285"/>
</svg>
