<svg width="15" height="16" viewBox="0 0 15 16" fill="none" xmlns="http://www.w3.org/2000/svg">
<path d="M6.28571 2.28571H8.57143C8.57143 1.98261 8.45102 1.69192 8.23669 1.47759C8.02237 1.26327 7.73168 1.14286 7.42857 1.14286C7.12547 1.14286 6.83478 1.26327 6.62045 1.47759C6.40612 1.69192 6.28571 1.98261 6.28571 2.28571ZM5.14286 2.28571C5.14286 1.67951 5.38367 1.09812 5.81233 0.66947C6.24098 0.240816 6.82236 0 7.42857 0C8.03478 0 8.61616 0.240816 9.04481 0.66947C9.47347 1.09812 9.71428 1.67951 9.71428 2.28571H14.2857C14.4373 2.28571 14.5826 2.34592 14.6898 2.45308C14.7969 2.56025 14.8571 2.70559 14.8571 2.85714C14.8571 3.0087 14.7969 3.15404 14.6898 3.2612C14.5826 3.36837 14.4373 3.42857 14.2857 3.42857H13.6411L12.264 13.5291C12.1706 14.2136 11.8324 14.8411 11.3119 15.2954C10.7914 15.7497 10.124 16 9.43314 16H5.424C4.73316 16 4.06572 15.7497 3.54526 15.2954C3.02479 14.8411 2.68654 14.2136 2.59314 13.5291L1.216 3.42857H0.571429C0.419876 3.42857 0.274531 3.36837 0.167368 3.2612C0.0602039 3.15404 0 3.0087 0 2.85714C0 2.70559 0.0602039 2.56025 0.167368 2.45308C0.274531 2.34592 0.419876 2.28571 0.571429 2.28571H5.14286ZM6.28571 6.28571C6.28571 6.13416 6.22551 5.98882 6.11835 5.88165C6.01118 5.77449 5.86584 5.71429 5.71429 5.71429C5.56273 5.71429 5.41739 5.77449 5.31022 5.88165C5.20306 5.98882 5.14286 6.13416 5.14286 6.28571V12C5.14286 12.1516 5.20306 12.2969 5.31022 12.4041C5.41739 12.5112 5.56273 12.5714 5.71429 12.5714C5.86584 12.5714 6.01118 12.5112 6.11835 12.4041C6.22551 12.2969 6.28571 12.1516 6.28571 12V6.28571ZM9.14286 5.71429C8.9913 5.71429 8.84596 5.77449 8.7388 5.88165C8.63163 5.98882 8.57143 6.13416 8.57143 6.28571V12C8.57143 12.1516 8.63163 12.2969 8.7388 12.4041C8.84596 12.5112 8.9913 12.5714 9.14286 12.5714C9.29441 12.5714 9.43975 12.5112 9.54692 12.4041C9.65408 12.2969 9.71428 12.1516 9.71428 12V6.28571C9.71428 6.13416 9.65408 5.98882 9.54692 5.88165C9.43975 5.77449 9.29441 5.71429 9.14286 5.71429Z" fill="#FF3B30"/>
</svg>
