<svg width="48" height="48" viewBox="0 0 48 48" fill="none" xmlns="http://www.w3.org/2000/svg">
<path fill-rule="evenodd" clip-rule="evenodd" d="M39.75 41.1834C38.4668 40.0945 36.5332 40.0945 35.25 41.1834C33.9668 42.2722 32.0332 42.2722 30.75 41.1834C29.4668 40.0945 27.5332 40.0945 26.25 41.1834C24.9668 42.2722 23.0332 42.2722 21.75 41.1834C20.4668 40.0945 18.5332 40.0945 17.25 41.1834C15.9668 42.2722 14.0332 42.2722 12.75 41.1834C11.4668 40.0945 9.53317 40.0945 8.25 41.1834C7.37818 41.9232 6 41.3324 6 40.2188V7.78118C6 6.66765 7.37818 6.07684 8.25 6.81663C9.53317 7.90547 11.4668 7.90547 12.75 6.81663C14.0332 5.72779 15.9668 5.72779 17.25 6.81663C18.5332 7.90547 20.4668 7.90547 21.75 6.81663C23.0332 5.72779 24.9668 5.72779 26.25 6.81663C27.5332 7.90547 29.4668 7.90547 30.75 6.81663C32.0332 5.72779 33.9668 5.72779 35.25 6.81663C36.5332 7.90547 38.4668 7.90547 39.75 6.81663C40.6218 6.07684 42 6.66765 42 7.78118V40.2188C42 41.3324 40.6218 41.9232 39.75 41.1834ZM13.5 24C13.5 23.1716 14.1716 22.5 15 22.5H33C33.8284 22.5 34.5 23.1716 34.5 24C34.5 24.8284 33.8284 25.5 33 25.5H15C14.1716 25.5 13.5 24.8284 13.5 24ZM15 15.5C14.1716 15.5 13.5 16.1716 13.5 17C13.5 17.8284 14.1716 18.5 15 18.5H33C33.8284 18.5 34.5 17.8284 34.5 17C34.5 16.1716 33.8284 15.5 33 15.5H15ZM13.5 31C13.5 30.1716 14.1716 29.5 15 29.5H33C33.8284 29.5 34.5 30.1716 34.5 31C34.5 31.8284 33.8284 32.5 33 32.5H15C14.1716 32.5 13.5 31.8284 13.5 31Z" fill="#5D7285"/>
</svg>
