<svg width="25" height="25" viewBox="0 0 25 25" fill="none" xmlns="http://www.w3.org/2000/svg">
<path d="M12.7434 2.27686C15.4234 2.27686 17.6266 4.38277 17.7385 7.05118H17.7123C17.7155 7.12874 17.7006 7.20598 17.6688 7.27686H17.8249C19.0419 7.27686 20.3163 8.12036 20.8273 10.1567L20.8828 10.3969L21.6517 16.5916C22.2051 20.5426 20.0434 22.2041 17.0947 22.2745L16.8969 22.2769H8.60699C5.61024 22.2769 3.30101 21.1848 3.80875 16.8604L3.84337 16.5916L4.6211 10.3969C5.00461 8.20404 6.29207 7.3391 7.53258 7.28012L7.67018 7.27686H7.74835C7.73517 7.2022 7.73517 7.12583 7.74835 7.05118C7.86019 4.38277 10.0635 2.27686 12.7434 2.27686ZM9.83546 10.6061C9.34736 10.6061 8.95167 11.0134 8.95167 11.5158C8.95167 12.0182 9.34736 12.4254 9.83546 12.4254C10.3236 12.4254 10.7193 12.0182 10.7193 11.5158L10.7124 11.4017C10.6578 10.9532 10.286 10.6061 9.83546 10.6061ZM15.6243 10.6061C15.1362 10.6061 14.7405 11.0134 14.7405 11.5158C14.7405 12.0182 15.1362 12.4254 15.6243 12.4254C16.1124 12.4254 16.5081 12.0182 16.5081 11.5158C16.5081 11.0134 16.1124 10.6061 15.6243 10.6061ZM12.7042 3.57924C10.7801 3.57924 9.2203 5.13368 9.2203 7.05118C9.23349 7.12583 9.23349 7.2022 9.2203 7.27686H16.2317C16.2038 7.2048 16.1891 7.12838 16.1881 7.05118C16.1881 5.13368 14.6283 3.57924 12.7042 3.57924Z" fill="#5D7285"/>
</svg>
