<svg width="25" height="25" viewBox="0 0 25 25" fill="none" xmlns="http://www.w3.org/2000/svg">
<path d="M16.9295 2.7998C20.0185 2.7998 21.7385 4.5798 21.7385 7.6298V17.9598C21.7385 21.0598 20.0185 22.7998 16.9295 22.7998H8.54846C5.50846 22.7998 3.73846 21.0598 3.73846 17.9598V7.6298C3.73846 4.5798 5.50846 2.7998 8.54846 2.7998H16.9295ZM8.81846 16.5398C8.51846 16.5098 8.22846 16.6498 8.06846 16.9098C7.90846 17.1598 7.90846 17.4898 8.06846 17.7498C8.22846 17.9998 8.51846 18.1498 8.81846 18.1098H16.6585C17.0575 18.0698 17.3585 17.7288 17.3585 17.3298C17.3585 16.9198 17.0575 16.5798 16.6585 16.5398H8.81846ZM16.6585 11.9788H8.81846C8.38746 11.9788 8.03846 12.3298 8.03846 12.7598C8.03846 13.1898 8.38746 13.5398 8.81846 13.5398H16.6585C17.0885 13.5398 17.4385 13.1898 17.4385 12.7598C17.4385 12.3298 17.0885 11.9788 16.6585 11.9788ZM11.8075 7.4498H8.81846V7.4598C8.38746 7.4598 8.03846 7.8098 8.03846 8.2398C8.03846 8.6698 8.38746 9.0198 8.81846 9.0198H11.8075C12.2385 9.0198 12.5885 8.6698 12.5885 8.2288C12.5885 7.7998 12.2385 7.4498 11.8075 7.4498Z" fill="#5D7285"/>
</svg>
